<?xml version="1.0" encoding="iso-8859-1"?>
<!-- Generator: Adobe Illustrator 19.0.0, SVG Export Plug-In . SVG Version: 6.00 Build 0)  -->
<svg version="1.1" id="Capa_1" xmlns="http://www.w3.org/2000/svg" xmlns:xlink="http://www.w3.org/1999/xlink" x="0px" y="0px"
	 viewBox="0 0 512.004 512.004" style="enable-background:new 0 0 512.004 512.004;" xml:space="preserve">
<g>
	<path style="fill:#4482C3;" d="M351.915,195.623c14.124-20.127,20.039-41.313,16.508-57.997h-0.088
		c-0.858-4.379-2.503-8.567-4.855-12.359c-5.777-9.007-15.061-15.186-25.6-17.037c-16.571-2.711-33.267,4.07-43.255,17.567
		c-8.651-35.928-41.225-43.608-61.263-31.514c-13.683,8.21-21.539,25.6-22.51,47.228c-69.056,3.652-130.331,45.458-158.919,108.425
		S32.202,386.55,74.906,440.942v0.088c10.608,13.583,23.091,25.591,37.076,35.663c31.585,23.015,69.675,35.382,108.756,35.31
		c5.297,0,10.505-0.265,15.713-0.706c80.822-6.843,147.79-65.475,165.252-144.684c2.954-13.124,4.435-26.537,4.414-39.989
		C406.175,277.49,386.672,230.353,351.915,195.623z"/>
	<g>
		<path style="fill:#24AE5F;" d="M406.117,326.625c0.021,13.452-1.46,26.865-4.414,39.989c-7.977,1.855-16.357-0.323-22.422-5.826
			c-9.71-8.033-17.743-19.862-32.044-18.008c-8.133,1.395-15.238,6.304-19.421,13.418c-12.094,19.509-5.826,44.403-16.066,64
			c-5.887,9.79-13.694,18.288-22.952,24.982l-0.265,0.265c-5.435,4.355-12.978,4.953-19.031,1.508
			c-6.053-3.445-9.391-10.235-8.423-17.133c2.189-17.494-2.355-35.166-12.712-49.434c-8.386-11.211-20.745-21.451-20.657-35.31
			c0.265-18.714,22.863-30.102,37.87-36.546c8.103-3.386,14.995-9.139,19.774-16.508c9.71-16.243,1.412-29.837-7.857-43.343
			c25.07-10.328,52.524-25.335,67.001-43.343c2.658-3.09,5.134-6.332,7.415-9.71C386.672,230.353,406.175,277.49,406.117,326.625z"
			/>
		<path style="fill:#24AE5F;" d="M151.176,211.425c-6.709,13.418-1.059,29.661,3.531,43.961c2.084,4.745,2.64,10.021,1.589,15.095
			c-1.684,3.916-4.362,7.324-7.768,9.887c-8.916,8.298-17.92,16.419-26.836,24.541c-6.883,5.506-12.536,12.392-16.596,20.215
			c-7.15,16.243,0.177,35.399-2.913,52.878c-4.149,22.775-24.982,40.254-27.277,62.941c-36.21-46.116-48.451-106.651-33.001-163.212
			s56.764-102.468,111.39-123.772c11.99,11.316,14.887,29.273,7.062,43.785C157.532,202.42,153.736,206.393,151.176,211.425z"/>
		<path style="fill:#24AE5F;" d="M236.451,511.298c-5.208,0.441-10.417,0.706-15.713,0.706
			c-39.081,0.071-77.171-12.295-108.756-35.31c5.032-6.091,8.828-13.153,13.771-19.332c5.185-7.562,13.783-12.06,22.952-12.006
			c11.122,1.236,18.714,12.623,29.396,15.89c8.604,1.193,17.326,1.282,25.953,0.265c1.735,0.057,3.443,0.446,5.032,1.148
			c1.618,0.945,3.029,2.206,4.149,3.708C223.651,479.783,225.857,498.233,236.451,511.298z"/>
	</g>
	<path style="fill:#CC4B4C;" d="M351.915,195.623c-2.281,3.378-4.757,6.62-7.415,9.71c-14.477,18.008-41.931,33.015-67.001,43.343
		c-4.59,1.942-9.004,3.619-13.33,5.208c-20.657-21.892-44.226-52.877-49.876-79.537c-2.652-10.736-3.81-21.786-3.443-32.839
		c0.971-21.628,8.828-39.018,22.51-47.228c20.039-12.094,52.612-4.414,61.263,31.514c9.988-13.497,26.684-20.278,43.255-17.567
		c10.539,1.852,19.823,8.03,25.6,17.037c2.352,3.792,3.997,7.979,4.855,12.359h0.088C371.954,154.31,366.04,175.496,351.915,195.623
		z"/>
	<path style="fill:#802D40;" d="M470.646,88.191c-7.768,26.218-33.633,55.349-55.879,75.476
		c-16.22-7.229-31.735-15.947-46.345-26.041h-0.088c-0.858-4.379-2.503-8.567-4.855-12.359c-5.777-9.007-15.061-15.186-25.6-17.037
		c-21.186-29.572-26.13-61.705-12.27-80.419c13.948-18.891,47.051-24.099,68.679,5.826c11.388-35.134,44.403-40.342,63.559-26.659
		C476.914,20.572,482.034,53.146,470.646,88.191z"/>
</g>
<g>
</g>
<g>
</g>
<g>
</g>
<g>
</g>
<g>
</g>
<g>
</g>
<g>
</g>
<g>
</g>
<g>
</g>
<g>
</g>
<g>
</g>
<g>
</g>
<g>
</g>
<g>
</g>
<g>
</g>
</svg>
